<?xml version="1.0" standalone="no"?>
<!DOCTYPE svg PUBLIC "-//W3C//DTD SVG 20010904//EN"
 "http://www.w3.org/TR/2001/REC-SVG-20010904/DTD/svg10.dtd">
<svg version="1.0" xmlns="http://www.w3.org/2000/svg"
 width="900.000000pt" height="900.000000pt" viewBox="0 0 900.000000 900.000000"
 preserveAspectRatio="xMidYMid meet">

<g transform="translate(0.000000,900.000000) scale(0.100000,-0.100000)"
fill="#000000" stroke="none">
<path d="M5359 8763 c-174 -279 -284 -447 -301 -460 -9 -6 -62 -5 -158 4 -205
19 -568 19 -775 -1 l-170 -16 -32 36 c-18 21 -119 176 -225 346 -188 300 -193
308 -225 308 -76 0 -438 -110 -692 -210 -219 -86 -639 -302 -724 -372 l-28
-23 71 -305 c117 -503 114 -488 99 -507 -8 -9 -66 -59 -129 -112 -147 -122
-407 -382 -533 -533 -54 -65 -105 -121 -114 -126 -17 -10 -74 1 -523 104
l-284 65 -18 -23 c-64 -85 -250 -435 -328 -618 -72 -168 -184 -497 -233 -686
l-34 -131 106 -69 c58 -39 218 -140 354 -224 l249 -154 -6 -41 c-38 -270 -39
-724 -3 -987 l13 -97 -334 -207 c-183 -114 -343 -215 -354 -224 -20 -16 -20
-16 17 -155 84 -320 200 -633 333 -898 86 -170 195 -360 232 -405 l20 -24 387
92 c214 51 393 94 398 97 6 2 60 -56 120 -129 137 -164 362 -392 520 -525 66
-55 130 -111 142 -125 l22 -24 -84 -379 c-47 -209 -85 -390 -85 -402 0 -64
582 -356 970 -487 154 -52 336 -105 408 -121 l63 -13 42 53 c23 30 127 189
231 355 180 288 189 301 215 296 215 -46 787 -46 1058 -1 38 7 8 48 263 -365
101 -162 191 -304 202 -315 18 -20 19 -20 148 13 267 68 601 190 867 317 150
72 396 208 441 243 l23 18 -95 404 c-53 222 -95 404 -93 405 1 1 52 41 112 90
143 116 410 378 540 530 57 66 114 131 128 143 l25 24 159 -36 c87 -19 266
-60 398 -91 l240 -55 17 22 c52 69 230 412 318 613 113 260 230 615 264 802
l5 32 -289 181 c-158 99 -316 201 -350 226 l-62 46 6 51 c14 119 26 354 25
532 0 173 -3 233 -25 451 l-7 72 120 78 c65 44 221 142 346 219 183 113 226
144 227 162 0 36 -65 280 -115 429 -78 232 -144 388 -266 634 -131 262 -204
390 -221 390 -12 0 -770 -176 -794 -184 -6 -3 -58 53 -115 122 -134 164 -388
417 -556 556 -73 60 -133 117 -133 125 1 9 41 189 90 401 l89 385 -33 30 c-74
67 -478 274 -718 369 -225 88 -564 193 -680 209 l-37 6 -142 -226z m-502
-1164 c474 -40 1039 -258 1473 -569 136 -97 238 -184 374 -318 324 -320 533
-640 709 -1087 149 -378 209 -694 211 -1110 1 -308 -26 -526 -99 -809 -296
-1150 -1233 -2033 -2407 -2270 -240 -48 -277 -51 -623 -50 -361 0 -450 10
-715 75 -914 223 -1648 805 -2063 1635 -168 336 -253 599 -304 939 -25 170
-26 756 -1 922 77 509 302 1037 613 1441 111 144 394 431 535 543 352 278 784
489 1210 593 97 23 298 60 380 69 80 9 588 6 707 -4z"/>
<path d="M5966 6397 l-208 -152 -52 -147 -51 -148 -363 -363 -363 -363 110
-108 110 -108 39 30 c21 17 180 177 353 354 l314 324 165 55 165 55 45 65 c25
35 93 133 150 218 l105 154 -149 143 c-82 79 -152 144 -155 143 -3 0 -100 -69
-215 -152z"/>
<path d="M3071 6356 c-20 -23 -6 -40 214 -266 106 -109 201 -212 210 -230 14
-27 15 -37 4 -63 -14 -32 -306 -333 -371 -381 -28 -21 -45 -27 -62 -22 -14 3
-121 99 -238 212 -222 215 -259 244 -284 223 -18 -15 -16 -30 53 -309 l55
-225 134 -135 134 -135 82 -19 c46 -10 158 -36 249 -58 l166 -39 783 -784
c431 -431 787 -790 791 -797 3 -7 28 -105 54 -218 25 -113 51 -222 56 -242 8
-30 37 -63 147 -165 l138 -128 234 -63 c129 -34 243 -63 252 -62 20 0 48 26
48 46 0 8 -97 113 -215 234 -121 123 -217 231 -221 245 -3 14 -3 37 0 51 7 28
284 317 350 365 41 31 83 37 119 17 12 -6 113 -100 225 -209 111 -109 211
-203 221 -209 15 -8 24 -6 36 7 23 22 19 43 -50 310 l-58 222 -131 130 -131
131 -246 57 -247 58 -789 782 -790 782 -52 218 c-70 293 -80 311 -231 448
l-122 110 -206 58 c-243 68 -292 76 -311 53z"/>
<path d="M4402 5407 l-62 -62 470 -470 470 -470 67 67 67 67 -325 317 c-178
175 -392 385 -474 466 l-151 148 -62 -63z"/>
<path d="M3159 4043 c-449 -452 -546 -557 -588 -640 -29 -58 -51 -156 -51
-229 0 -125 53 -226 192 -366 156 -157 241 -206 378 -215 134 -9 255 32 359
121 29 26 263 254 519 506 l466 460 -81 82 -82 82 -193 -190 c-192 -190 -235
-224 -282 -224 -31 0 -81 42 -94 79 -19 53 14 99 218 305 l189 192 -84 84 -85
84 -57 -55 c-278 -266 -366 -342 -415 -354 -21 -5 -33 0 -61 27 -50 46 -55 82
-20 135 16 23 109 126 207 228 l180 186 -80 80 -80 80 -455 -458z"/>
</g>
</svg>
